<svg width="238" height="128" viewBox="0 0 238 128" fill="none" xmlns="http://www.w3.org/2000/svg">
<g clip-path="url(#clip0_384_1293)">
<mask id="mask0_384_1293" style="mask-type:luminance" maskUnits="userSpaceOnUse" x="-42" y="-82" width="314" height="313">
<path d="M-41.2482 -81.4825H271.402V230.822H-41.2482V-81.4825Z" fill="white"/>
</mask>
<g mask="url(#mask0_384_1293)">
<path d="M80.1557 11.9748C77.1111 9.74558 73.9871 6.99855 71.7635 3.66688L69.8176 0.751202C69.4049 0.133461 68.6364 -0.141991 67.9223 0.0722504C67.2101 0.287743 66.7236 0.943581 66.7236 1.68687V28.1566C65.7256 27.5751 64.5813 27.2178 63.3457 27.2178C59.6196 27.2178 56.5894 30.2446 56.5894 33.9661C56.5894 37.6881 59.6196 40.7144 63.3457 40.7144C67.0713 40.7144 70.1015 37.6881 70.1015 33.9661V7.22591C72.4876 10.2396 75.4734 12.7293 78.1585 14.6969C79.4778 15.6619 80.2351 17.1516 80.2351 18.7824C80.2351 21.5732 77.9621 23.8436 75.1683 23.8436C74.2347 23.8436 73.4793 24.5982 73.4793 25.5307C73.4793 26.4633 74.2347 27.2178 75.1683 27.2178C79.8243 27.2178 83.613 23.4333 83.613 18.7824C83.613 16.1054 82.3211 13.5613 80.1557 11.9748Z" fill="#D43430"/>
</g>
<mask id="mask1_384_1293" style="mask-type:luminance" maskUnits="userSpaceOnUse" x="-42" y="-82" width="314" height="313">
<path d="M-41.2482 -81.4825H271.402V230.822H-41.2482V-81.4825Z" fill="white"/>
</mask>
<g mask="url(#mask1_384_1293)">
<path d="M111.263 19.778L87.3929 26.5263C86.6669 26.7343 86.1673 27.3964 86.1673 28.149V51.0197C85.1693 50.4382 84.025 50.0809 82.7894 50.0809C79.0633 50.0809 76.0337 53.1078 76.0337 56.8298C76.0337 60.5513 79.0633 63.5781 82.7894 63.5781C86.515 63.5781 89.5452 60.5513 89.5452 56.8298V36.1709L110.038 30.3864V44.2714C109.04 43.6899 107.896 43.3326 106.66 43.3326C102.934 43.3326 99.9039 46.3595 99.9039 50.0809C99.9039 53.803 102.934 56.8298 106.66 56.8298C110.386 56.8298 113.415 53.803 113.415 50.0809V21.4007C113.415 20.2852 112.347 19.4719 111.263 19.778Z" fill="#D43430"/>
</g>
<path d="M39.0638 128.148V113.911H40.61L46.0692 122.717L45.3804 122.695L50.8542 113.911H52.3197V128.148H50.7076V120.565C50.7076 119.59 50.7314 118.698 50.7809 117.893C50.8285 117.084 50.9073 116.279 51.0154 115.478L51.3012 116.012L46.1717 124.042H45.1752L40.163 116.107L40.3902 115.478C40.4964 116.239 40.5697 117.013 40.61 117.798C40.654 118.585 40.6759 119.5 40.6759 120.543V128.148H39.0638ZM60.7118 128.353C59.9204 128.353 59.2389 128.187 58.6674 127.855C58.0995 127.524 57.6635 127.043 57.3557 126.413C57.0516 125.78 56.9014 125.001 56.9014 124.078V117.476H58.4475V123.698C58.4475 124.766 58.693 125.584 59.1876 126.15C59.6859 126.712 60.3821 126.992 61.276 126.992C61.7102 126.992 62.1059 126.915 62.4631 126.757C62.824 126.602 63.141 126.395 63.4157 126.135C63.6887 125.877 63.9012 125.59 64.0533 125.272C64.209 124.955 64.2877 124.633 64.2877 124.305V117.476H65.8412V128.148H64.3097L64.2877 125.828L64.5955 125.667C64.4343 126.155 64.1577 126.607 63.7675 127.021C63.3809 127.436 62.9266 127.764 62.4045 128.002C61.8861 128.236 61.3218 128.353 60.7118 128.353ZM73.3485 128.353C72.4545 128.353 71.6448 128.194 70.923 127.877C70.2049 127.555 69.6223 127.098 69.179 126.501L70.2342 125.586C70.6299 126.075 71.0989 126.441 71.6411 126.684C72.1834 126.929 72.8007 127.05 73.495 127.05C73.8468 127.05 74.1564 127.006 74.4257 126.918C74.6986 126.831 74.9313 126.71 75.1218 126.552C75.3123 126.397 75.4515 126.214 75.5395 126.003C75.6274 125.795 75.6714 125.568 75.6714 125.323C75.6714 124.874 75.4955 124.516 75.1438 124.247C74.9533 124.111 74.6913 123.98 74.3597 123.852C74.0263 123.72 73.6214 123.593 73.1433 123.471C72.4105 123.295 71.7968 123.09 71.304 122.856C70.8094 122.618 70.4192 122.342 70.1316 122.029C69.9154 121.786 69.7524 121.517 69.6407 121.224C69.5326 120.931 69.4794 120.609 69.4794 120.258C69.4794 119.677 69.6425 119.163 69.9704 118.713C70.2965 118.265 70.7416 117.915 71.304 117.666C71.8646 117.418 72.5058 117.293 73.2239 117.293C73.7167 117.293 74.2022 117.363 74.6821 117.498C75.1658 117.63 75.6091 117.826 76.0158 118.084C76.4206 118.343 76.7742 118.655 77.0783 119.021L76.177 119.994C75.893 119.712 75.5908 119.465 75.2684 119.255C74.9496 119.046 74.6235 118.881 74.2864 118.764C73.9494 118.647 73.6159 118.589 73.2899 118.589C72.9381 118.589 72.6175 118.629 72.3299 118.706C72.046 118.779 71.8042 118.887 71.6045 119.028C71.4085 119.171 71.2619 119.341 71.1648 119.54C71.0714 119.736 71.0256 119.963 71.0256 120.221C71.0403 120.408 71.0879 120.592 71.1721 120.777C71.2546 120.958 71.37 121.11 71.5166 121.231C71.7071 121.383 71.9782 121.529 72.3299 121.67C72.6817 121.813 73.1085 121.939 73.6123 122.051C74.2663 122.212 74.8159 122.391 75.261 122.585C75.7099 122.781 76.0707 123.015 76.3455 123.288C76.6276 123.533 76.831 123.819 76.9537 124.144C77.0746 124.466 77.1369 124.84 77.1369 125.264C77.1369 125.875 76.9721 126.413 76.646 126.882C76.3235 127.347 75.8766 127.707 75.305 127.965C74.7334 128.223 74.0813 128.353 73.3485 128.353ZM80.8814 128.148V117.476H82.4349V128.148H80.8814ZM81.6362 114.973C81.2844 114.973 81.0078 114.876 80.8081 114.68C80.6121 114.481 80.515 114.219 80.515 113.897C80.515 113.571 80.6121 113.309 80.8081 113.114C81.0078 112.914 81.2844 112.813 81.6362 112.813C81.9879 112.813 82.2608 112.909 82.4569 113.099C82.6565 113.289 82.7573 113.556 82.7573 113.897C82.7573 114.21 82.662 114.468 82.4715 114.673C82.281 114.874 82.0025 114.973 81.6362 114.973ZM91.2904 128.353C90.2682 128.353 89.3596 128.11 88.5645 127.621C87.7731 127.134 87.1503 126.472 86.696 125.637C86.2416 124.803 86.0145 123.857 86.0145 122.797C86.0145 121.754 86.2416 120.818 86.696 119.987C87.1503 119.152 87.7731 118.497 88.5645 118.018C89.3596 117.535 90.2682 117.293 91.2904 117.293C92.2137 117.293 93.0454 117.474 93.7892 117.835C94.5366 118.192 95.1265 118.687 95.5625 119.321L94.6685 120.382C94.4231 120.056 94.1226 119.767 93.7672 119.518C93.4155 119.266 93.0363 119.068 92.6314 118.925C92.2247 118.784 91.818 118.713 91.4077 118.713C90.6603 118.713 89.9898 118.889 89.3999 119.24C88.8137 119.591 88.3484 120.078 88.0076 120.697C87.6705 121.312 87.502 122.012 87.502 122.797C87.502 123.588 87.6742 124.296 88.0223 124.92C88.3685 125.541 88.8393 126.033 89.4365 126.399C90.0319 126.765 90.6969 126.948 91.4297 126.948C91.8492 126.948 92.2504 126.885 92.6314 126.757C93.0125 126.626 93.3715 126.439 93.7086 126.194C94.0493 125.95 94.3699 125.652 94.6685 125.301L95.5405 126.377C95.0954 126.962 94.489 127.438 93.7233 127.804C92.9557 128.17 92.1441 128.353 91.2904 128.353ZM110.077 128.353C108.894 128.353 107.858 128.126 106.97 127.672C106.085 127.219 105.338 126.551 104.728 125.667L105.863 124.408C106.474 125.301 107.12 125.938 107.805 126.318C108.494 126.699 109.304 126.889 110.238 126.889C110.839 126.889 111.378 126.787 111.858 126.582C112.341 126.377 112.724 126.099 113.008 125.747C113.296 125.396 113.44 124.997 113.44 124.547C113.44 124.25 113.389 123.98 113.286 123.734C113.184 123.491 113.026 123.273 112.818 123.083C112.607 122.893 112.345 122.717 112.033 122.556C111.72 122.395 111.363 122.252 110.964 122.124C110.562 121.992 110.11 121.866 109.608 121.743C108.904 121.593 108.291 121.396 107.769 121.151C107.245 120.907 106.801 120.616 106.435 120.28C106.069 119.939 105.798 119.548 105.622 119.108C105.446 118.669 105.358 118.171 105.358 117.615C105.358 116.854 105.57 116.184 105.995 115.602C106.424 115.022 107.001 114.563 107.725 114.226C108.452 113.886 109.271 113.714 110.18 113.714C111.279 113.714 112.218 113.915 113.001 114.314C113.781 114.715 114.409 115.293 114.884 116.049L113.741 117.169C113.305 116.53 112.792 116.04 112.202 115.697C111.616 115.352 110.929 115.178 110.143 115.178C109.531 115.178 108.987 115.28 108.509 115.485C108.034 115.686 107.661 115.966 107.388 116.327C107.118 116.684 106.985 117.099 106.985 117.571C106.985 117.913 107.047 118.223 107.175 118.501C107.307 118.779 107.499 119.021 107.754 119.225C108.012 119.427 108.344 119.61 108.751 119.774C109.161 119.935 109.645 120.078 110.201 120.199C110.958 120.375 111.64 120.585 112.246 120.828C112.85 121.074 113.363 121.359 113.785 121.685C114.204 122.007 114.521 122.373 114.737 122.783C114.957 123.189 115.067 123.65 115.067 124.166C115.067 125.006 114.858 125.74 114.444 126.369C114.028 126.999 113.448 127.488 112.7 127.833C111.956 128.179 111.083 128.353 110.077 128.353ZM120.077 128.148V114.746H121.624V128.148H120.077ZM117.608 118.977V117.476H124.291V118.977H117.608ZM131.886 128.353C130.84 128.353 129.908 128.115 129.087 127.636C128.266 127.153 127.616 126.494 127.138 125.659C126.663 124.825 126.427 123.872 126.427 122.797C126.427 121.729 126.663 120.783 127.138 119.957C127.616 119.128 128.266 118.477 129.087 118.003C129.908 117.531 130.84 117.293 131.886 117.293C132.93 117.293 133.865 117.531 134.685 118.003C135.506 118.477 136.147 119.128 136.612 119.957C137.081 120.783 137.316 121.729 137.316 122.797C137.316 123.872 137.081 124.825 136.612 125.659C136.147 126.494 135.506 127.153 134.685 127.636C133.865 128.115 132.93 128.353 131.886 128.353ZM131.886 126.926C132.628 126.926 133.295 126.748 133.887 126.391C134.476 126.031 134.938 125.541 135.272 124.92C135.603 124.296 135.762 123.588 135.748 122.797C135.762 121.998 135.603 121.293 135.272 120.682C134.938 120.073 134.476 119.591 133.887 119.24C133.295 118.889 132.628 118.713 131.886 118.713C131.139 118.713 130.468 118.889 129.878 119.24C129.287 119.591 128.819 120.078 128.479 120.697C128.142 121.312 127.98 122.012 127.995 122.797C127.98 123.588 128.142 124.296 128.479 124.92C128.819 125.541 129.287 126.031 129.878 126.391C130.468 126.748 131.139 126.926 131.886 126.926ZM140.595 128.148V117.476H142.141L142.163 120.565L141.98 120.038C142.116 119.551 142.35 119.097 142.684 118.677C143.015 118.252 143.418 117.915 143.893 117.666C144.371 117.418 144.893 117.293 145.461 117.293C145.69 117.293 145.908 117.311 146.113 117.344C146.318 117.374 146.488 117.418 146.626 117.476L146.216 119.16C146.025 119.092 145.831 119.035 145.637 118.991C145.441 118.944 145.252 118.918 145.072 118.918C144.651 118.918 144.261 119.004 143.9 119.174C143.543 119.341 143.235 119.568 142.977 119.855C142.717 120.139 142.517 120.461 142.376 120.821C142.233 121.178 142.163 121.546 142.163 121.926V128.148H140.595ZM153.606 128.353C152.536 128.353 151.585 128.119 150.755 127.65C149.929 127.182 149.282 126.536 148.813 125.711C148.344 124.882 148.11 123.938 148.11 122.878C148.11 122.055 148.242 121.301 148.505 120.616C148.769 119.928 149.136 119.339 149.605 118.845C150.074 118.353 150.632 117.972 151.283 117.703C151.937 117.43 152.649 117.293 153.422 117.293C154.1 117.293 154.736 117.416 155.328 117.659C155.917 117.904 156.43 118.252 156.866 118.706C157.301 119.16 157.632 119.694 157.863 120.309C158.092 120.924 158.193 121.604 158.163 122.351L158.149 123.127H149.231L148.901 121.868H156.866L156.581 122.212L156.603 121.7C156.573 121.119 156.408 120.607 156.112 120.162C155.813 119.714 155.43 119.361 154.961 119.101C154.492 118.843 153.979 118.713 153.422 118.713C152.635 118.713 151.957 118.88 151.385 119.211C150.817 119.544 150.389 120.012 150.096 120.616C149.802 121.216 149.649 121.939 149.634 122.783C149.649 123.623 149.824 124.353 150.162 124.971C150.502 125.586 150.982 126.068 151.598 126.413C152.217 126.756 152.935 126.926 153.752 126.926C154.333 126.926 154.875 126.829 155.379 126.633C155.881 126.439 156.39 126.11 156.903 125.645L157.68 126.743C157.352 127.07 156.969 127.354 156.529 127.592C156.09 127.826 155.617 128.013 155.115 128.148C154.611 128.284 154.107 128.353 153.606 128.353Z" fill="black"/>
<mask id="mask2_384_1293" style="mask-type:luminance" maskUnits="userSpaceOnUse" x="-42" y="-82" width="314" height="313">
<path d="M-41.2482 -81.4825H271.402V230.822H-41.2482V-81.4825Z" fill="white"/>
</mask>
<g mask="url(#mask2_384_1293)">
<path d="M45.892 9.36513V9.78549C20.7787 9.95538 0.397062 31.6581 0.397062 58.3014V127.663H0V58.3014C0 31.4238 20.5574 9.53502 45.892 9.36513Z" fill="black"/>
</g>
<mask id="mask3_384_1293" style="mask-type:luminance" maskUnits="userSpaceOnUse" x="-42" y="-82" width="314" height="313">
<path d="M-41.2482 -81.4825H271.402V230.822H-41.2482V-81.4825Z" fill="white"/>
</mask>
<g mask="url(#mask3_384_1293)">
<path d="M45.8921 16.4808V16.9012C24.4724 17.063 7.10408 35.572 7.10408 58.3016V127.663H6.70764V58.3016C6.70764 35.3372 24.2511 16.6426 45.8921 16.4808Z" fill="black"/>
</g>
<mask id="mask4_384_1293" style="mask-type:luminance" maskUnits="userSpaceOnUse" x="-42" y="-82" width="314" height="313">
<path d="M-41.2482 -81.4825H271.402V230.822H-41.2482V-81.4825Z" fill="white"/>
</mask>
<g mask="url(#mask4_384_1293)">
<path d="M45.8921 23.5725V23.9929C28.1729 24.1628 13.8042 39.4938 13.8042 58.3021V127.663H13.4077V58.3021C13.4077 39.2596 27.9522 23.7424 45.8921 23.5725Z" fill="black"/>
</g>
<mask id="mask5_384_1293" style="mask-type:luminance" maskUnits="userSpaceOnUse" x="-42" y="-82" width="314" height="313">
<path d="M-41.2482 -81.4825H271.402V230.822H-41.2482V-81.4825Z" fill="white"/>
</mask>
<g mask="url(#mask5_384_1293)">
<path d="M45.892 30.6799V31.1003C31.8665 31.2702 20.5117 43.407 20.5117 58.3014V127.663H20.1146V58.3014C20.1146 43.1728 31.6452 30.8498 45.892 30.6799Z" fill="black"/>
</g>
<mask id="mask6_384_1293" style="mask-type:luminance" maskUnits="userSpaceOnUse" x="-42" y="-82" width="314" height="313">
<path d="M-41.2482 -81.4825H271.402V230.822H-41.2482V-81.4825Z" fill="white"/>
</mask>
<g mask="url(#mask6_384_1293)">
<path d="M45.892 37.7955V38.2159C35.5596 38.3776 27.2193 47.3208 27.2193 58.3014V127.663H26.8223V58.3014C26.8223 47.0947 35.3464 37.9573 45.892 37.7955Z" fill="black"/>
</g>
<path d="M47.0664 91.5899C48.9864 91.5899 50.6504 90.7259 50.6504 88.8059C50.6504 84.0059 40.3784 85.4779 40.3784 77.8939C40.3784 73.1259 44.4744 71.4939 48.1544 71.4939C50.0424 71.4939 54.2344 71.9419 54.2344 74.0539C54.2344 74.7899 53.7224 76.2619 52.5704 76.2619C51.5784 76.2619 50.8424 75.0459 48.1544 75.0459C45.8504 75.0459 44.5384 75.9739 44.5384 77.5099C44.5384 81.4779 54.8104 80.1019 54.8104 88.3899C54.8104 92.9659 51.6104 95.3339 47.1944 95.3339C43.0024 95.3339 39.8024 93.2219 39.8024 91.3659C39.8024 90.4699 40.6344 89.1259 41.6264 89.1259C42.9384 89.1259 43.8024 91.5899 47.0664 91.5899ZM63.7212 79.6539C67.4332 79.6539 70.6652 82.5979 70.6652 86.1499V88.7739C70.6652 92.1979 67.4332 95.3339 63.7212 95.3339C59.9772 95.3339 56.7772 92.2299 56.7772 88.7739V86.1499C56.7772 82.6939 59.9132 79.6539 63.7212 79.6539ZM66.5372 88.7739V86.1499C66.5372 84.7099 65.2572 83.2699 63.7212 83.2699C62.1532 83.2699 60.9052 84.7099 60.9052 86.1499V88.7739C60.9052 90.2779 62.1532 91.7179 63.7212 91.7179C65.2572 91.7179 66.5372 90.2779 66.5372 88.7739ZM80.0747 95.3339C76.2667 95.3339 73.1307 92.2619 73.1307 88.8379V81.1579C73.1307 80.5179 74.0587 79.8459 75.2107 79.8459C76.2987 79.8459 77.2587 80.5179 77.2587 81.1579V88.8379C77.2587 90.2779 78.5067 91.7179 80.0747 91.7179C81.6427 91.7179 82.8587 90.3099 82.8587 88.8379V81.1259C82.8587 80.4539 83.8187 79.8459 84.9387 79.8459C86.1547 79.8459 86.9867 80.4539 86.9867 81.1259V88.8379C86.9867 92.2939 83.8507 95.3339 80.0747 95.3339ZM94.1999 86.1499V93.7339C94.1999 94.3739 93.2399 95.0459 92.1199 95.0459C90.9039 95.0459 90.0719 94.3739 90.0719 93.7339V81.1259C90.0719 80.3579 90.9039 79.8459 92.1199 79.8459C93.1119 79.8459 93.9439 80.3579 93.9439 81.1259V82.0859C94.5519 80.8379 96.0879 79.6539 98.2319 79.6539C101.176 79.6539 103.736 82.5979 103.736 86.1499V93.7339C103.736 94.5979 102.68 95.0459 101.656 95.0459C100.696 95.0459 99.6079 94.5979 99.6079 93.7339V86.1499C99.6079 84.7099 98.3599 83.2699 96.8239 83.2699C95.5119 83.2699 94.1999 84.3579 94.1999 86.1499ZM118.182 70.9819C119.366 70.9819 120.23 71.4939 120.23 72.2619V93.7339C120.23 94.3739 119.366 95.0459 118.182 95.0459C117.158 95.0459 116.326 94.3739 116.326 93.7339V92.8059C115.686 94.1179 113.926 95.3339 111.878 95.3339C108.902 95.3339 106.278 92.1979 106.278 88.7739V86.1499C106.278 82.5979 108.838 79.6539 111.974 79.6539C113.958 79.6539 115.398 80.8379 116.102 82.0859V72.2619C116.102 71.4939 117.03 70.9819 118.182 70.9819ZM110.406 86.1499V88.7739C110.406 90.2459 111.686 91.7179 113.19 91.7179C114.822 91.7179 116.102 90.0219 116.102 89.3499V86.1499C116.102 84.3579 114.598 83.2699 113.222 83.2699C111.654 83.2699 110.406 84.7099 110.406 86.1499Z" fill="black"/>
<path d="M123.767 93.7339V72.9339C123.767 72.0379 124.791 71.6539 125.847 71.6539C126.871 71.6539 127.927 72.0379 127.927 72.9339V81.6699L134.839 72.2619C135.159 71.8139 135.543 71.6539 135.991 71.6539C137.047 71.6539 138.391 72.7419 138.391 73.7979C138.391 74.0219 138.359 74.3099 138.135 74.5979L132.407 81.7659L139.383 92.3899C139.543 92.6139 139.607 92.8699 139.607 93.1259C139.607 94.1499 138.327 95.2059 137.111 95.2059C136.567 95.2059 136.023 94.9819 135.671 94.4059L129.655 85.2859L127.927 87.4619V93.7339C127.927 94.5979 126.871 95.0459 125.847 95.0459C124.791 95.0459 123.767 94.5979 123.767 93.7339ZM147.535 79.6539C151.055 79.6539 154.127 82.1179 154.127 85.6699C154.127 88.3899 152.591 88.5179 151.151 88.5179H144.655V88.9979C144.655 90.8539 146.159 92.0699 148.399 92.0699C150.511 92.0699 151.375 90.8539 152.335 90.8539C153.295 90.8539 153.903 92.0379 153.903 92.6779C153.903 93.7659 151.695 95.3339 148.271 95.3339C143.727 95.3339 140.527 92.7099 140.527 88.7739V86.0539C140.527 82.5979 143.631 79.6539 147.535 79.6539ZM144.655 86.0859H149.327C149.999 86.0859 150.255 85.9259 150.255 85.2219C150.255 83.7179 148.975 82.6939 147.439 82.6939C145.999 82.6939 144.655 83.6539 144.655 85.1899V86.0859ZM163.035 79.6539C166.555 79.6539 169.627 82.1179 169.627 85.6699C169.627 88.3899 168.091 88.5179 166.651 88.5179H160.155V88.9979C160.155 90.8539 161.659 92.0699 163.899 92.0699C166.011 92.0699 166.875 90.8539 167.835 90.8539C168.795 90.8539 169.403 92.0379 169.403 92.6779C169.403 93.7659 167.195 95.3339 163.771 95.3339C159.227 95.3339 156.027 92.7099 156.027 88.7739V86.0539C156.027 82.5979 159.131 79.6539 163.035 79.6539ZM160.155 86.0859H164.827C165.499 86.0859 165.755 85.9259 165.755 85.2219C165.755 83.7179 164.475 82.6939 162.939 82.6939C161.499 82.6939 160.155 83.6539 160.155 85.1899V86.0859ZM174.087 79.8459C175.207 79.8459 176.007 80.3579 176.007 81.1259V82.0859C176.743 80.8379 178.279 79.6539 180.327 79.6539C183.527 79.6539 186.055 82.5979 186.055 86.1499V88.7739C186.055 92.1979 183.431 95.3339 180.455 95.3339C178.535 95.3339 176.871 94.1179 176.263 92.8059V100.806C176.263 101.478 175.303 102.118 174.151 102.118C172.967 102.118 172.135 101.478 172.135 100.806V81.1259C172.135 80.3579 172.999 79.8459 174.087 79.8459ZM181.927 88.7739V86.1499C181.927 84.7099 180.615 83.2699 179.015 83.2699C177.671 83.2699 176.263 84.3579 176.263 86.1499V89.3499C176.263 90.0219 177.447 91.7179 179.079 91.7179C180.583 91.7179 181.927 90.2459 181.927 88.7739ZM195.129 79.6539C198.649 79.6539 201.721 82.1179 201.721 85.6699C201.721 88.3899 200.185 88.5179 198.745 88.5179H192.249V88.9979C192.249 90.8539 193.753 92.0699 195.993 92.0699C198.105 92.0699 198.969 90.8539 199.929 90.8539C200.889 90.8539 201.497 92.0379 201.497 92.6779C201.497 93.7659 199.289 95.3339 195.865 95.3339C191.321 95.3339 188.121 92.7099 188.121 88.7739V86.0539C188.121 82.5979 191.225 79.6539 195.129 79.6539ZM192.249 86.0859H196.921C197.593 86.0859 197.849 85.9259 197.849 85.2219C197.849 83.7179 196.569 82.6939 195.033 82.6939C193.593 82.6939 192.249 83.6539 192.249 85.1899V86.0859ZM212.997 83.2699H212.005C210.149 83.2699 208.325 85.0939 208.325 88.0059V93.7339C208.325 94.3739 207.365 95.0459 206.213 95.0459C205.029 95.0459 204.197 94.3739 204.197 93.7339V81.1259C204.197 80.3579 205.029 79.8459 206.213 79.8459C207.237 79.8459 208.069 80.3579 208.069 81.1259V82.4379C208.709 81.0619 210.245 79.6539 212.005 79.6539H212.997C213.765 79.6539 214.501 80.4859 214.501 81.4459C214.501 82.4379 213.765 83.2699 212.997 83.2699Z" fill="#D43430"/>
</g>
<defs>
<clipPath id="clip0_384_1293">
<rect width="238" height="128" fill="white"/>
</clipPath>
</defs>
</svg>
