<svg width="176" height="32" viewBox="0 0 176 32" fill="none" xmlns="http://www.w3.org/2000/svg">
<path d="M8.16 24.788C6.77333 24.788 5.51467 24.5853 4.384 24.18C3.27467 23.7747 2.38933 23.2733 1.728 22.676C1.088 22.0573 0.768 21.4387 0.768 20.82C0.768 20.5213 0.842667 20.2013 0.992 19.86C1.16267 19.4973 1.38667 19.1987 1.664 18.964C1.94133 18.708 2.25067 18.58 2.592 18.58C2.93333 18.58 3.25333 18.708 3.552 18.964C3.85067 19.1987 4.192 19.4867 4.576 19.828C4.96 20.148 5.42933 20.436 5.984 20.692C6.53867 20.9267 7.22133 21.044 8.032 21.044C8.672 21.044 9.25867 20.948 9.792 20.756C10.3467 20.5427 10.784 20.2333 11.104 19.828C11.4453 19.4227 11.616 18.9 11.616 18.26C11.616 17.5773 11.4347 17.0013 11.072 16.532C10.7093 16.0627 10.2187 15.6573 9.6 15.316C8.98133 14.9747 8.30933 14.644 7.584 14.324C6.85867 14.004 6.12267 13.6627 5.376 13.3C4.65067 12.9373 3.97867 12.5 3.36 11.988C2.76267 11.476 2.272 10.8467 1.888 10.1C1.52533 9.35333 1.344 8.436 1.344 7.348C1.344 6.15333 1.568 5.15067 2.016 4.34C2.48533 3.52933 3.09333 2.87867 3.84 2.388C4.608 1.876 5.45067 1.51333 6.368 1.3C7.28533 1.06533 8.20267 0.947998 9.12 0.947998C9.61067 0.947998 10.1867 0.990665 10.848 1.076C11.5307 1.14 12.2027 1.268 12.864 1.46C13.5467 1.652 14.1013 1.91867 14.528 2.26C14.976 2.58 15.2 3.00667 15.2 3.54C15.2 3.77467 15.136 4.06267 15.008 4.404C14.9013 4.74533 14.72 5.05467 14.464 5.332C14.2293 5.60933 13.92 5.748 13.536 5.748C13.1947 5.748 12.8533 5.652 12.512 5.46C12.192 5.24667 11.7653 5.044 11.232 4.852C10.72 4.63867 10.016 4.532 9.12 4.532C8.37333 4.532 7.72267 4.628 7.168 4.82C6.61333 5.012 6.19733 5.28933 5.92 5.652C5.64267 5.99333 5.504 6.43067 5.504 6.964C5.504 7.51867 5.68533 7.988 6.048 8.372C6.432 8.756 6.92267 9.09733 7.52 9.396C8.13867 9.69467 8.81067 9.99333 9.536 10.292C10.2613 10.5907 10.9867 10.9427 11.712 11.348C12.4587 11.732 13.1413 12.2013 13.76 12.756C14.3787 13.3107 14.8693 14.004 15.232 14.836C15.5947 15.6467 15.776 16.6493 15.776 17.844C15.776 19.3587 15.4453 20.6387 14.784 21.684C14.1227 22.708 13.216 23.4867 12.064 24.02C10.9333 24.532 9.632 24.788 8.16 24.788ZM24.6548 24.788C23.4174 24.788 22.2761 24.4893 21.2308 23.892C20.1854 23.2733 19.3428 22.4627 18.7028 21.46C18.0628 20.4573 17.7428 19.38 17.7428 18.228V15.604C17.7428 14.452 18.0521 13.3853 18.6708 12.404C19.2894 11.4013 20.1214 10.6013 21.1668 10.004C22.2334 9.40667 23.3961 9.108 24.6548 9.108C25.9134 9.108 27.0654 9.40667 28.1108 10.004C29.1774 10.58 30.0201 11.3587 30.6388 12.34C31.2788 13.3213 31.5988 14.4093 31.5988 15.604V18.228C31.5988 19.3587 31.2788 20.4253 30.6388 21.428C29.9988 22.4307 29.1454 23.2413 28.0788 23.86C27.0334 24.4787 25.8921 24.788 24.6548 24.788ZM24.6548 21.172C25.1668 21.172 25.6361 21.0333 26.0628 20.756C26.4894 20.4787 26.8308 20.116 27.0868 19.668C27.3428 19.1987 27.4708 18.7187 27.4708 18.228V15.604C27.4708 15.1133 27.3428 14.6547 27.0868 14.228C26.8308 13.8013 26.4894 13.4493 26.0628 13.172C25.6574 12.8733 25.1881 12.724 24.6548 12.724C24.1428 12.724 23.6734 12.8627 23.2468 13.14C22.8201 13.4173 22.4788 13.78 22.2228 14.228C21.9881 14.6547 21.8708 15.1133 21.8708 15.604V18.228C21.8708 18.7187 21.9881 19.1987 22.2228 19.668C22.4788 20.116 22.8201 20.4787 23.2468 20.756C23.6734 21.0333 24.1428 21.172 24.6548 21.172ZM41.041 24.788C39.761 24.788 38.5877 24.4893 37.521 23.892C36.4757 23.2733 35.633 22.4733 34.993 21.492C34.3743 20.4893 34.065 19.4227 34.065 18.292V10.612C34.065 10.292 34.2677 9.99333 34.673 9.716C35.0997 9.43867 35.5903 9.3 36.145 9.3C36.6997 9.3 37.1797 9.43867 37.585 9.716C37.9903 9.99333 38.193 10.292 38.193 10.612V18.292C38.193 18.7827 38.321 19.2413 38.577 19.668C38.833 20.0947 39.1743 20.4573 39.601 20.756C40.0277 21.0333 40.497 21.172 41.009 21.172C41.5423 21.172 42.0117 21.0333 42.417 20.756C42.8437 20.4787 43.185 20.116 43.441 19.668C43.697 19.22 43.825 18.7613 43.825 18.292V10.58C43.825 10.2387 44.0277 9.94 44.433 9.684C44.8597 9.428 45.3397 9.3 45.873 9.3C46.4917 9.3 46.993 9.428 47.377 9.684C47.761 9.94 47.953 10.2387 47.953 10.58V18.292C47.953 19.444 47.633 20.5213 46.993 21.524C46.3743 22.5053 45.5317 23.2947 44.465 23.892C43.4197 24.4893 42.2783 24.788 41.041 24.788ZM53.0543 24.5C52.4569 24.5 51.9663 24.3613 51.5823 24.084C51.1983 23.8067 51.0063 23.4973 51.0063 23.156V10.58C51.0063 10.196 51.1983 9.88667 51.5823 9.652C51.9663 9.41733 52.4569 9.3 53.0543 9.3C53.5663 9.3 53.9929 9.41733 54.3343 9.652C54.6969 9.88667 54.8783 10.196 54.8783 10.58V11.54C55.1983 10.9213 55.7209 10.3667 56.4463 9.876C57.1929 9.364 58.0996 9.108 59.1663 9.108C60.1689 9.108 61.0863 9.40667 61.9183 10.004C62.7503 10.58 63.4116 11.3587 63.9023 12.34C64.4143 13.3213 64.6703 14.4093 64.6703 15.604V23.156C64.6703 23.604 64.4569 23.9453 64.0303 24.18C63.6036 24.3933 63.1236 24.5 62.5903 24.5C62.1209 24.5 61.6623 24.3933 61.2143 24.18C60.7663 23.9453 60.5423 23.604 60.5423 23.156V15.604C60.5423 15.1133 60.4143 14.6547 60.1583 14.228C59.9236 13.8013 59.5929 13.4493 59.1663 13.172C58.7396 12.8733 58.2703 12.724 57.7583 12.724C57.3316 12.724 56.9156 12.8413 56.5103 13.076C56.1049 13.3107 55.7743 13.6413 55.5183 14.068C55.2623 14.4947 55.1343 15.0067 55.1343 15.604V23.156C55.1343 23.4973 54.9316 23.8067 54.5263 24.084C54.1209 24.3613 53.6303 24.5 53.0543 24.5ZM72.8123 24.788C71.8096 24.788 70.8816 24.4787 70.0283 23.86C69.1749 23.2413 68.4923 22.4307 67.9803 21.428C67.4683 20.4253 67.2122 19.3587 67.2122 18.228V15.604C67.2122 14.4093 67.4683 13.3213 67.9803 12.34C68.4923 11.3587 69.1749 10.58 70.0283 10.004C70.8816 9.40667 71.8309 9.108 72.8763 9.108C73.8789 9.108 74.7323 9.364 75.4363 9.876C76.1403 10.3667 76.6629 10.9213 77.0043 11.54V1.716C77.0043 1.332 77.2069 1.02267 77.6123 0.787998C78.0176 0.553332 78.5189 0.435999 79.1163 0.435999C79.6923 0.435999 80.1723 0.553332 80.5563 0.787998C80.9403 1.02267 81.1323 1.332 81.1323 1.716V23.156C81.1323 23.4973 80.9403 23.8067 80.5563 24.084C80.1723 24.3613 79.6923 24.5 79.1163 24.5C78.6043 24.5 78.1669 24.3613 77.8043 24.084C77.4416 23.8067 77.2603 23.4973 77.2603 23.156V22.26C76.9403 22.9213 76.3643 23.508 75.5323 24.02C74.7216 24.532 73.8149 24.788 72.8123 24.788ZM74.1243 21.172C74.6789 21.172 75.1696 21.0227 75.5963 20.724C76.0229 20.404 76.3643 20.0627 76.6203 19.7C76.8763 19.316 77.0043 19.0173 77.0043 18.804V15.604C77.0043 15.0067 76.8549 14.4947 76.5563 14.068C76.2789 13.6413 75.9163 13.3107 75.4683 13.076C75.0416 12.8413 74.6043 12.724 74.1562 12.724C73.6443 12.724 73.1643 12.8733 72.7163 13.172C72.2896 13.4493 71.9483 13.8013 71.6923 14.228C71.4576 14.6547 71.3403 15.1133 71.3403 15.604V18.228C71.3403 18.7187 71.4576 19.188 71.6923 19.636C71.9483 20.084 72.2896 20.4573 72.7163 20.756C73.1429 21.0333 73.6123 21.172 74.1243 21.172Z" fill="black"/>
<path d="M86.7188 24.5C86.2068 24.5 85.7268 24.3933 85.2788 24.18C84.8521 23.9453 84.6388 23.604 84.6388 23.156V2.42C84.6388 1.95067 84.8521 1.62 85.2788 1.428C85.7268 1.21467 86.2068 1.108 86.7188 1.108C87.2521 1.108 87.7321 1.21467 88.1588 1.428C88.5854 1.62 88.7988 1.95067 88.7988 2.42V11.124L95.7428 1.716C96.0201 1.31067 96.3934 1.108 96.8628 1.108C97.2254 1.108 97.5881 1.21467 97.9508 1.428C98.3348 1.64133 98.6548 1.908 98.9108 2.228C99.1668 2.548 99.2948 2.88933 99.2948 3.252C99.2948 3.35867 99.2734 3.48667 99.2308 3.636C99.1881 3.78533 99.1134 3.924 99.0068 4.052L93.3108 11.22L100.287 21.844C100.436 22.0787 100.511 22.324 100.511 22.58C100.511 22.9213 100.383 23.252 100.127 23.572C99.8921 23.892 99.5828 24.1587 99.1988 24.372C98.8148 24.564 98.4201 24.66 98.0148 24.66C97.7161 24.66 97.4388 24.596 97.1828 24.468C96.9481 24.34 96.7348 24.1373 96.5428 23.86L90.5268 14.74L88.7988 16.916V23.156C88.7988 23.604 88.5854 23.9453 88.1588 24.18C87.7321 24.3933 87.2521 24.5 86.7188 24.5ZM109.112 24.788C107.597 24.788 106.253 24.5213 105.08 23.988C103.928 23.4333 103.021 22.6653 102.36 21.684C101.698 20.6813 101.368 19.5293 101.368 18.228V15.508C101.368 14.356 101.677 13.3 102.296 12.34C102.936 11.3587 103.778 10.58 104.824 10.004C105.89 9.40667 107.074 9.108 108.376 9.108C109.57 9.108 110.658 9.364 111.64 9.876C112.642 10.388 113.453 11.092 114.072 11.988C114.69 12.884 115 13.9293 115 15.124C115 16.0413 114.85 16.7027 114.552 17.108C114.253 17.492 113.869 17.7373 113.4 17.844C112.952 17.9293 112.482 17.972 111.992 17.972H105.496V18.452C105.496 19.3693 105.837 20.116 106.52 20.692C107.224 21.2467 108.13 21.524 109.24 21.524C109.944 21.524 110.53 21.4173 111 21.204C111.469 20.9907 111.874 20.788 112.216 20.596C112.557 20.404 112.877 20.308 113.176 20.308C113.496 20.308 113.773 20.4147 114.008 20.628C114.242 20.8413 114.424 21.0973 114.552 21.396C114.68 21.6733 114.744 21.9187 114.744 22.132C114.744 22.4947 114.509 22.8893 114.04 23.316C113.592 23.7213 112.941 24.0733 112.088 24.372C111.256 24.6493 110.264 24.788 109.112 24.788ZM105.496 15.54H110.168C110.53 15.54 110.776 15.4867 110.904 15.38C111.053 15.252 111.128 15.0173 111.128 14.676C111.128 14.1853 110.989 13.748 110.712 13.364C110.456 12.98 110.114 12.6813 109.688 12.468C109.282 12.2547 108.824 12.148 108.312 12.148C107.821 12.148 107.362 12.2547 106.936 12.468C106.509 12.66 106.157 12.948 105.88 13.332C105.624 13.6947 105.496 14.132 105.496 14.644V15.54ZM124.643 24.788C123.128 24.788 121.784 24.5213 120.611 23.988C119.459 23.4333 118.552 22.6653 117.891 21.684C117.23 20.6813 116.899 19.5293 116.899 18.228V15.508C116.899 14.356 117.208 13.3 117.827 12.34C118.467 11.3587 119.31 10.58 120.355 10.004C121.422 9.40667 122.606 9.108 123.907 9.108C125.102 9.108 126.19 9.364 127.171 9.876C128.174 10.388 128.984 11.092 129.603 11.988C130.222 12.884 130.531 13.9293 130.531 15.124C130.531 16.0413 130.382 16.7027 130.083 17.108C129.784 17.492 129.4 17.7373 128.931 17.844C128.483 17.9293 128.014 17.972 127.523 17.972H121.027V18.452C121.027 19.3693 121.368 20.116 122.051 20.692C122.755 21.2467 123.662 21.524 124.771 21.524C125.475 21.524 126.062 21.4173 126.531 21.204C127 20.9907 127.406 20.788 127.747 20.596C128.088 20.404 128.408 20.308 128.707 20.308C129.027 20.308 129.304 20.4147 129.539 20.628C129.774 20.8413 129.955 21.0973 130.083 21.396C130.211 21.6733 130.275 21.9187 130.275 22.132C130.275 22.4947 130.04 22.8893 129.571 23.316C129.123 23.7213 128.472 24.0733 127.619 24.372C126.787 24.6493 125.795 24.788 124.643 24.788ZM121.027 15.54H125.699C126.062 15.54 126.307 15.4867 126.435 15.38C126.584 15.252 126.659 15.0173 126.659 14.676C126.659 14.1853 126.52 13.748 126.243 13.364C125.987 12.98 125.646 12.6813 125.219 12.468C124.814 12.2547 124.355 12.148 123.843 12.148C123.352 12.148 122.894 12.2547 122.467 12.468C122.04 12.66 121.688 12.948 121.411 13.332C121.155 13.6947 121.027 14.132 121.027 14.644V15.54ZM135.054 31.572C134.478 31.572 133.998 31.4333 133.614 31.156C133.23 30.8787 133.038 30.58 133.038 30.26V10.58C133.038 10.196 133.23 9.88667 133.614 9.652C133.998 9.41733 134.468 9.3 135.022 9.3C135.577 9.3 136.025 9.41733 136.366 9.652C136.729 9.88667 136.91 10.196 136.91 10.58V11.54C137.273 10.9213 137.828 10.3667 138.574 9.876C139.321 9.364 140.206 9.108 141.23 9.108C142.318 9.108 143.289 9.40667 144.142 10.004C145.017 10.58 145.7 11.3587 146.19 12.34C146.702 13.3213 146.958 14.4093 146.958 15.604V18.228C146.958 19.3587 146.702 20.4253 146.19 21.428C145.678 22.4307 144.996 23.2413 144.142 23.86C143.31 24.4787 142.382 24.788 141.358 24.788C140.42 24.788 139.566 24.532 138.798 24.02C138.03 23.508 137.486 22.9213 137.166 22.26V30.26C137.166 30.58 136.964 30.8787 136.558 31.156C136.153 31.4333 135.652 31.572 135.054 31.572ZM140.014 21.172C140.526 21.172 140.985 21.0333 141.39 20.756C141.817 20.4573 142.158 20.084 142.414 19.636C142.692 19.188 142.83 18.7187 142.83 18.228V15.604C142.83 15.1133 142.702 14.6547 142.446 14.228C142.19 13.8013 141.838 13.4493 141.39 13.172C140.964 12.8733 140.484 12.724 139.95 12.724C139.481 12.724 139.033 12.8413 138.606 13.076C138.201 13.3107 137.86 13.6413 137.582 14.068C137.305 14.4947 137.166 15.0067 137.166 15.604V18.804C137.166 19.0173 137.284 19.316 137.518 19.7C137.774 20.0627 138.116 20.404 138.542 20.724C138.969 21.0227 139.46 21.172 140.014 21.172ZM156.768 24.788C155.253 24.788 153.909 24.5213 152.736 23.988C151.584 23.4333 150.677 22.6653 150.016 21.684C149.355 20.6813 149.024 19.5293 149.024 18.228V15.508C149.024 14.356 149.333 13.3 149.952 12.34C150.592 11.3587 151.435 10.58 152.48 10.004C153.547 9.40667 154.731 9.108 156.032 9.108C157.227 9.108 158.315 9.364 159.296 9.876C160.299 10.388 161.109 11.092 161.728 11.988C162.347 12.884 162.656 13.9293 162.656 15.124C162.656 16.0413 162.507 16.7027 162.208 17.108C161.909 17.492 161.525 17.7373 161.056 17.844C160.608 17.9293 160.139 17.972 159.648 17.972H153.152V18.452C153.152 19.3693 153.493 20.116 154.176 20.692C154.88 21.2467 155.787 21.524 156.896 21.524C157.6 21.524 158.187 21.4173 158.656 21.204C159.125 20.9907 159.531 20.788 159.872 20.596C160.213 20.404 160.533 20.308 160.832 20.308C161.152 20.308 161.429 20.4147 161.664 20.628C161.899 20.8413 162.08 21.0973 162.208 21.396C162.336 21.6733 162.4 21.9187 162.4 22.132C162.4 22.4947 162.165 22.8893 161.696 23.316C161.248 23.7213 160.597 24.0733 159.744 24.372C158.912 24.6493 157.92 24.788 156.768 24.788ZM153.152 15.54H157.824C158.187 15.54 158.432 15.4867 158.56 15.38C158.709 15.252 158.784 15.0173 158.784 14.676C158.784 14.1853 158.645 13.748 158.368 13.364C158.112 12.98 157.771 12.6813 157.344 12.468C156.939 12.2547 156.48 12.148 155.968 12.148C155.477 12.148 155.019 12.2547 154.592 12.468C154.165 12.66 153.813 12.948 153.536 13.332C153.28 13.6947 153.152 14.132 153.152 14.644V15.54ZM167.147 24.5C166.571 24.5 166.091 24.3613 165.707 24.084C165.323 23.8067 165.131 23.4973 165.131 23.156V10.58C165.131 10.196 165.323 9.88667 165.707 9.652C166.091 9.41733 166.571 9.3 167.147 9.3C167.681 9.3 168.118 9.41733 168.459 9.652C168.822 9.88667 169.003 10.196 169.003 10.58V11.892C169.238 11.4227 169.547 10.9853 169.931 10.58C170.337 10.1533 170.795 9.80133 171.307 9.524C171.819 9.24667 172.363 9.108 172.939 9.108H173.931C174.337 9.108 174.689 9.28933 174.987 9.652C175.286 9.99333 175.435 10.4093 175.435 10.9C175.435 11.412 175.286 11.8493 174.987 12.212C174.689 12.5533 174.337 12.724 173.931 12.724H172.939C172.342 12.724 171.755 12.9267 171.179 13.332C170.625 13.716 170.166 14.26 169.803 14.964C169.441 15.6467 169.259 16.4787 169.259 17.46V23.156C169.259 23.4973 169.057 23.8067 168.651 24.084C168.246 24.3613 167.745 24.5 167.147 24.5Z" fill="white"/>
</svg>
